<?xml version="1.0" encoding="UTF-8" standalone="no"?>
<!-- Created with Inkscape (http://www.inkscape.org/) -->

<svg
   xmlns:dc="http://purl.org/dc/elements/1.1/"
   xmlns:cc="http://creativecommons.org/ns#"
   xmlns:rdf="http://www.w3.org/1999/02/22-rdf-syntax-ns#"
   xmlns:svg="http://www.w3.org/2000/svg"
   xmlns="http://www.w3.org/2000/svg"
   xmlns:sodipodi="http://sodipodi.sourceforge.net/DTD/sodipodi-0.dtd"
   xmlns:inkscape="http://www.inkscape.org/namespaces/inkscape"
   width="271.3049"
   height="86.817596"
   id="svg2"
   version="1.1"
   inkscape:version="0.48.2 r9819"
   sodipodi:docname="twitcoin-button.svg">
  <defs
     id="defs4">
    <linearGradient
       id="linearGradient3816">
      <stop
         style="stop-color:#fff12f;stop-opacity:1;"
         offset="0"
         id="stop3818" />
      <stop
         id="stop3824"
         offset="0.5"
         style="stop-color:#ffffff;stop-opacity:1;" />
      <stop
         style="stop-color:#e69a00;stop-opacity:1;"
         offset="1"
         id="stop3820" />
    </linearGradient>
  </defs>
  <sodipodi:namedview
     id="base"
     pagecolor="#ffffff"
     bordercolor="#666666"
     borderopacity="1.0"
     inkscape:pageopacity="0.0"
     inkscape:pageshadow="2"
     inkscape:zoom="2.9892232"
     inkscape:cx="131.79865"
     inkscape:cy="21.860888"
     inkscape:document-units="px"
     inkscape:current-layer="g3695"
     showgrid="true"
     inkscape:window-width="1440"
     inkscape:window-height="876"
     inkscape:window-x="0"
     inkscape:window-y="24"
     inkscape:window-maximized="1"
     showguides="true"
     inkscape:guide-bbox="true"
     inkscape:snap-grids="false"
     inkscape:snap-to-guides="true"
     inkscape:snap-page="false"
     fit-margin-top="0"
     fit-margin-left="0"
     fit-margin-right="0"
     fit-margin-bottom="0">
    <inkscape:grid
       type="xygrid"
       id="grid2985"
       empspacing="5"
       visible="true"
       enabled="true"
       snapvisiblegridlinesonly="true" />
  </sodipodi:namedview>
  <metadata
     id="metadata7">
    <rdf:RDF>
      <cc:Work
         rdf:about="">
        <dc:format>image/svg+xml</dc:format>
        <dc:type
           rdf:resource="http://purl.org/dc/dcmitype/StillImage" />
        <dc:title />
      </cc:Work>
    </rdf:RDF>
  </metadata>
  <g
     inkscape:label="Calque 1"
     inkscape:groupmode="layer"
     id="layer1"
     transform="translate(-214.34754,-758.95338)">
    <g
       id="g3961"
       transform="matrix(0.84999999,0,0,0.84999999,-2197.7633,-2642.8401)"
       style="stroke:#ffffff;stroke-opacity:1" />
    <g
       id="g3695"
       transform="translate(-177.93047,-486.80792)"
       inkscape:export-filename="/Users/raphael/Documents/WORK/EUX/Ecogex/Bitcoin Logo/pack/buttonDonate.png"
       inkscape:export-xdpi="113.12"
       inkscape:export-ydpi="113.12">
      <path
         inkscape:connector-curvature="0"
         id="rect4469"
         d="m 392.27801,1256.5884 271.30491,0 0,65.1431 -271.30491,0 z"
         style="fill:#dbdbdb;fill-opacity:1;stroke:none" />
      <path
         sodipodi:nodetypes="ccccc"
         inkscape:connector-curvature="0"
         id="rect4477"
         d="m 397.70408,1245.7613 260.45269,0 5.42607,10.8522 -271.30483,0 z"
         style="fill:#eb611f;fill-opacity:1;stroke:none" />
      <path
         sodipodi:nodetypes="ccccc"
         inkscape:connector-curvature="0"
         id="rect4479"
         d="m 392.27801,1321.7266 271.30491,0 -5.42608,10.8523 -260.45276,0 z"
         style="fill:#848484;fill-opacity:1;stroke:none" />
      <path
         transform="matrix(0.13565244,0,0,0.13565244,301.12696,831.417)"
         style="fill:#ffffff;fill-opacity:1;stroke:none"
         d="m 1320,3372.3623 c 0,154.6397 -125.3603,280 -280,280 -154.63973,0 -280,-125.3603 -280,-280 0,-154.6397 125.36027,-280 280,-280 154.6397,0 280,125.3603 280,280 z"
         id="path4481" />
      <path
         id="path4605"
         d="m 428.63507,1262.1435 0,3.0098 0,32.5905 -6.93525,0 0,6.0154 6.93525,0 0,9.1226 0,3.0055 3.00978,0 15.9095,0 c 0,0 3.61207,0.04 7.3125,-1.8101 3.7004,-1.8502 7.62618,-6.1599 7.62618,-13.1286 0,-6.5899 -2.87027,-10.9032 -6.10008,-13.1795 2.28629,-2.2223 4.11193,-5.7644 4.11193,-10.6826 0,-6.8015 -3.18633,-11.0759 -6.43074,-13.0226 -3.24443,-1.9467 -6.51979,-1.9204 -6.51979,-1.9204 l -15.9095,0 -3.00978,0 z m 6.01957,6.0154 12.89971,0 c 0,0 1.69798,0.027 3.4252,1.064 1.72726,1.0364 3.51,2.7331 3.51,7.8636 0,4.8348 -1.69655,6.2744 -3.40401,7.2066 -1.57855,0.8618 -3.12403,0.9121 -3.35741,0.9156 -0.0646,0 -0.10274,0.01 -0.17378,0.01 0,0 -0.004,0 -0.004,0 l -12.89546,0 0,-17.054 z m 13.19645,23.0609 c 0.47505,0 2.42116,0.055 4.3154,1.0089 2.17809,1.0964 4.31121,2.8888 4.31121,8.7199 0,4.9634 -2.03713,6.6164 -4.30268,7.7492 -2.26564,1.1327 -4.62067,1.1742 -4.62067,1.1742 l -12.89971,0 0,-6.1128 10.91151,0 0,-6.0154 -10.91151,0 0,-6.5156 12.81491,0 c 0,0 0.0568,0 0.0848,0 0.0588,0 0.11993,-0.01 0.17803,-0.01 0.004,0 0.009,0 0.0126,0 0.004,0 0.0379,-0.01 0.10599,-0.01 z"
         style="font-size:medium;font-style:normal;font-variant:normal;font-weight:normal;font-stretch:normal;text-indent:0;text-align:start;text-decoration:none;line-height:normal;letter-spacing:normal;word-spacing:normal;text-transform:none;direction:ltr;block-progression:tb;writing-mode:lr-tb;text-anchor:start;baseline-shift:baseline;color:#000000;fill:#000000;fill-opacity:1;stroke:none;stroke-width:60.5;marker:none;visibility:visible;display:inline;overflow:visible;enable-background:accumulate;font-family:Sans;-inkscape-font-specification:Sans"
         inkscape:connector-curvature="0" />
      <text
         xml:space="preserve"
         style="font-size:40px;font-style:normal;font-variant:normal;font-weight:bold;font-stretch:normal;line-height:125%;letter-spacing:0px;word-spacing:0px;fill:#000000;fill-opacity:1;stroke:none;font-family:FreeSans;-inkscape-font-specification:Sans Bold"
         x="498.30402"
         y="1299.4528"
         id="text3030"
         sodipodi:linespacing="125%"><tspan
           sodipodi:role="line"
           id="tspan3032"
           x="498.30402"
           y="1299.4528"
           style="font-size:32px">Twitcoin</tspan></text>
    </g>
  </g>
</svg>
