<?xml version="1.0" encoding="UTF-8" standalone="no"?>
<!-- Created with Inkscape (http://www.inkscape.org/) -->

<svg
   xmlns:dc="http://purl.org/dc/elements/1.1/"
   xmlns:cc="http://creativecommons.org/ns#"
   xmlns:rdf="http://www.w3.org/1999/02/22-rdf-syntax-ns#"
   xmlns:svg="http://www.w3.org/2000/svg"
   xmlns="http://www.w3.org/2000/svg"
   xmlns:sodipodi="http://sodipodi.sourceforge.net/DTD/sodipodi-0.dtd"
   xmlns:inkscape="http://www.inkscape.org/namespaces/inkscape"
   width="313.13669"
   height="78.216949"
   id="svg2"
   version="1.1"
   inkscape:version="0.48.2 r9819"
   sodipodi:docname="we-love-bitcoin.svg"
   inkscape:export-filename="/Users/raphael/Documents/WORK/EUX/Ecogex/Bitcoin Logo/weLoveBitcoin.png"
   inkscape:export-xdpi="113"
   inkscape:export-ydpi="113">
  <defs
     id="defs4">
    <linearGradient
       id="linearGradient3816">
      <stop
         style="stop-color:#fff12f;stop-opacity:1;"
         offset="0"
         id="stop3818" />
      <stop
         id="stop3824"
         offset="0.5"
         style="stop-color:#ffffff;stop-opacity:1;" />
      <stop
         style="stop-color:#e69a00;stop-opacity:1;"
         offset="1"
         id="stop3820" />
    </linearGradient>
  </defs>
  <sodipodi:namedview
     id="base"
     pagecolor="#ffffff"
     bordercolor="#666666"
     borderopacity="1.0"
     inkscape:pageopacity="0.0"
     inkscape:pageshadow="2"
     inkscape:zoom="2.9892232"
     inkscape:cx="129.52421"
     inkscape:cy="48.839398"
     inkscape:document-units="px"
     inkscape:current-layer="g4094"
     showgrid="true"
     inkscape:window-width="1440"
     inkscape:window-height="876"
     inkscape:window-x="0"
     inkscape:window-y="24"
     inkscape:window-maximized="1"
     showguides="true"
     inkscape:guide-bbox="true"
     inkscape:snap-grids="false"
     inkscape:snap-to-guides="true"
     inkscape:snap-page="false"
     fit-margin-top="0"
     fit-margin-left="0"
     fit-margin-right="0"
     fit-margin-bottom="0">
    <inkscape:grid
       type="xygrid"
       id="grid2985"
       empspacing="5"
       visible="true"
       enabled="true"
       snapvisiblegridlinesonly="true" />
  </sodipodi:namedview>
  <metadata
     id="metadata7">
    <rdf:RDF>
      <cc:Work
         rdf:about="">
        <dc:format>image/svg+xml</dc:format>
        <dc:type
           rdf:resource="http://purl.org/dc/dcmitype/StillImage" />
        <dc:title />
      </cc:Work>
    </rdf:RDF>
  </metadata>
  <g
     inkscape:label="Calque 1"
     inkscape:groupmode="layer"
     id="layer1"
     transform="translate(-193.43165,-763.25371)">
    <g
       id="g3961"
       transform="matrix(0.84999999,0,0,0.84999999,-2197.7633,-2642.8401)"
       style="stroke:#ffffff;stroke-opacity:1"
       inkscape:export-filename="/Users/raphael/Documents/WORK/EUX/Ecogex/Bitcoin Logo/pack/ribbonWeLoveBitcoin.png"
       inkscape:export-xdpi="113"
       inkscape:export-ydpi="113" />
    <g
       id="g4094"
       transform="translate(-670.73774,-486.54019)"
       inkscape:export-xdpi="113"
       inkscape:export-ydpi="113"
       inkscape:export-filename="/Users/raphael/Documents/WORK/EUX/Ecogex/Bitcoin Logo/pack/ribbonWeLoveBitcoin.png">
      <g
         transform="matrix(0.13565244,0,0,0.13565244,-501.93546,842.3751)"
         id="g4547"
         inkscape:export-filename="/Users/raphael/Documents/WORK/EUX/Ecogex/Bitcoin Logo/weLoveBitcoin.png"
         inkscape:export-xdpi="113"
         inkscape:export-ydpi="113">
        <path
           sodipodi:nodetypes="ccccc"
           inkscape:connector-curvature="0"
           id="path4537"
           d="m 10250.626,3252.8036 328.374,-32.1988 0,247.0725 -328.374,32.1987 z"
           style="fill:#dbdbdb;fill-opacity:1;stroke:none" />
        <path
           style="fill:#848484;fill-opacity:1;stroke:none"
           d="m 10070.626,3156.2075 508.374,64.3973 0,247.0725 -508.374,-64.3974 z"
           id="rect4534"
           inkscape:connector-curvature="0"
           sodipodi:nodetypes="ccccc" />
        <path
           style="fill:#dbdbdb;fill-opacity:1;stroke:none"
           d="m 12199,3252.8036 -328.374,-32.1988 0,247.0725 328.374,32.1987 z"
           id="path4540"
           inkscape:connector-curvature="0"
           sodipodi:nodetypes="ccccc" />
        <path
           sodipodi:nodetypes="ccccc"
           inkscape:connector-curvature="0"
           id="path4542"
           d="m 12379,3156.2075 -508.374,64.3973 0,247.0725 508.374,-64.3974 z"
           style="fill:#848484;fill-opacity:1;stroke:none" />
        <path
           sodipodi:nodetypes="ccccc"
           inkscape:connector-curvature="0"
           style="fill:#dbdbdb;fill-opacity:1;stroke:none"
           d="m 10070.625,3156.2188 0,247.0624 c 769.458,0 1538.917,0 2308.375,0 l 0,-247.0624 c -769.458,0 -1538.917,0 -2308.375,0 z"
           id="rect4532" />
      </g>
      <g
         transform="matrix(0.13565244,0,0,0.13565244,-483.96886,842.3751)"
         id="g4577"
         inkscape:export-filename="/Users/raphael/Documents/WORK/EUX/Ecogex/Bitcoin Logo/weLoveBitcoin.png"
         inkscape:export-xdpi="113"
         inkscape:export-ydpi="113">
        <path
           style="fill:#eb611f;fill-opacity:1;stroke:none"
           d="m 10969.622,3003.4029 c -87.396,0.267 -184.469,67.1022 -186.891,205.1684 -2.5,142.5614 175.53,288.7195 307.628,370.8595 1.271,0.7406 2.741,0.785 4.015,-0.023 132.095,-82.1425 310.129,-228.2832 307.628,-370.8366 -3.841,-219.0723 -246.001,-258.7698 -309.635,-137.8515 -23.53,-44.7118 -71.469,-67.4736 -122.745,-67.317 z"
           id="path4569"
           inkscape:connector-curvature="0"
           sodipodi:nodetypes="ssccscs" />
        <g
           style="stroke:#ffffff"
           transform="matrix(0.58530767,0,0,0.5993685,10629.676,1180.9268)"
           id="g4524">
          <path
             inkscape:connector-curvature="0"
             style="font-size:medium;font-style:normal;font-variant:normal;font-weight:normal;font-stretch:normal;text-indent:0;text-align:start;text-decoration:none;line-height:normal;letter-spacing:normal;word-spacing:normal;text-transform:none;direction:ltr;block-progression:tb;writing-mode:lr-tb;text-anchor:start;baseline-shift:baseline;color:#000000;fill:#ffffff;fill-opacity:1;stroke:none;stroke-width:60.5;marker:none;visibility:visible;display:inline;overflow:visible;enable-background:accumulate;font-family:Sans;-inkscape-font-specification:Sans"
             d="m 11009.969,3116.9688 0,18.125 0,196.4374 -40.813,0 0,36.2813 40.813,0 0,54.9687 0,18.125 17.719,0 93.656,0 c 0,0 21.249,0.2466 43.031,-10.9062 21.782,-11.1527 44.906,-37.1193 44.906,-79.125 0,-39.7227 -16.925,-65.7165 -35.937,-79.4375 13.458,-13.3958 24.22,-34.7602 24.218,-64.4063 0,-40.9984 -18.745,-66.7657 -37.843,-78.5 -19.098,-11.7341 -38.375,-11.5626 -38.375,-11.5624 l -93.656,0 -17.719,0 z m 35.437,36.25 75.938,0 c 0,0 9.989,0.1593 20.156,6.4062 10.167,6.2469 20.656,16.4805 20.656,47.4062 0,29.1435 -9.98,37.8184 -20.031,43.4376 -9.292,5.1947 -18.408,5.5106 -19.781,5.5312 -0.78,0.023 -2.063,0.031 -2.063,0.031 l 0,0.1876 -74.875,0 0,-103 z m 0,138.8124 75.438,0 0,0.2188 c 0,0 1.057,0 1.562,0 0.02,1e-4 0.01,0 0.03,0 0.159,-0.01 13.319,-0.5065 26.062,6.0625 12.821,6.6089 25.375,17.4134 25.375,52.5625 0,29.9185 -12.008,39.8903 -25.344,46.7188 -13.336,6.8283 -27.187,7.0625 -27.187,7.0624 l -75.938,0 0,-36.8437 64.219,0 0,-36.2813 -64.219,0 0,-39.5 z"
             transform="matrix(1.7085032,0,0,1.6684227,-18160.835,-1970.2851)"
             id="path4526" />
        </g>
      </g>
      <g
         style="font-size:30.18416405px;font-style:normal;font-variant:normal;font-weight:normal;font-stretch:normal;line-height:100%;letter-spacing:0.53464288px;word-spacing:0px;fill:#4d4d4d;fill-opacity:1;stroke:none;font-family:Cousine;-inkscape-font-specification:Cousine"
         id="text4573"
         inkscape:export-filename="/Users/raphael/Documents/WORK/EUX/Ecogex/Bitcoin Logo/weLoveBitcoin.png"
         inkscape:export-xdpi="113"
         inkscape:export-ydpi="113"
         transform="translate(-0.33914654,0)">
        <path
           d="m 902.28882,1280.9262 c 0.58323,0 1.14981,0.067 1.69972,0.2 0.5499,0.1333 1.10815,0.3749 1.67473,0.7248 0.58323,0.35 1.08314,0.7999 1.49975,1.3498 0.43325,0.5333 0.78319,1.2498 1.04983,2.1497 0.26661,0.8832 0.39992,1.8997 0.39993,3.0495 -1e-5,0.1999 -0.008,0.3999 -0.025,0.5999 l -9.04851,0 c 0.0167,0.5165 0.0583,0.9665 0.12498,1.3497 0.0833,0.3666 0.21662,0.7332 0.39993,1.0999 0.19996,0.3499 0.48325,0.6249 0.84986,0.8248 0.38326,0.1833 0.85819,0.275 1.42477,0.275 1.3331,0 2.22462,-0.5666 2.67456,-1.6997 l 3.44943,0 c -0.38329,1.3331 -1.14149,2.3996 -2.27463,3.1994 -1.13315,0.7832 -2.45793,1.1748 -3.97434,1.1748 -1.91636,0 -3.42444,-0.6165 -4.52426,-1.8497 -1.09982,-1.2498 -1.64973,-2.9578 -1.64973,-5.1241 0,-2.2663 0.55824,-4.0493 1.67473,-5.3491 1.11648,-1.3165 2.64122,-1.9747 4.57424,-1.9747 m 2.67456,5.749 c -0.0833,-0.9831 -0.35828,-1.7413 -0.82486,-2.2746 -0.44993,-0.5332 -1.08316,-0.7998 -1.89969,-0.7999 -1.53308,10e-5 -2.41627,1.0249 -2.64956,3.0745 l 5.37411,0"
           style="font-size:24.99588585px;font-weight:bold;line-height:100%;letter-spacing:1.5348599px;fill:#4d4d4d;font-family:FreeSans;-inkscape-font-specification:FreeSans Bold"
           id="path4113"
           inkscape:connector-curvature="0" />
        <path
           d="m 922.14775,1276.4269 0,18.222 -3.49942,0 0,-18.222 3.49942,0"
           style="font-size:24.99588585px;font-weight:bold;line-height:100%;letter-spacing:1.5348599px;fill:#4d4d4d;font-family:FreeSans;-inkscape-font-specification:FreeSans Bold"
           id="path4115"
           inkscape:connector-curvature="0" />
        <path
           d="m 932.47647,1280.9262 c 2.11631,0 3.75771,0.6416 4.92419,1.9247 1.18313,1.2664 1.7747,3.0411 1.77471,5.3241 -1e-5,2.1663 -0.59991,3.8827 -1.7997,5.1491 -1.19982,1.2665 -2.82455,1.8997 -4.8742,1.8997 -2.083,0 -3.71606,-0.6332 -4.89919,-1.8997 -1.18314,-1.2831 -1.77471,-3.0328 -1.77471,-5.2491 0,-2.2163 0.59157,-3.9577 1.77471,-5.2241 1.18313,-1.2831 2.80786,-1.9247 4.87419,-1.9247 m 0.025,2.8245 c -0.94985,0 -1.71639,0.4 -2.29962,1.1998 -0.58324,0.7999 -0.87486,1.8414 -0.87486,3.1245 0,1.2831 0.29162,2.3246 0.87486,3.1245 0.58323,0.7999 1.34977,1.1998 2.29962,1.1998 0.93317,0 1.69138,-0.3916 2.27463,-1.1748 0.59989,-0.7999 0.89984,-1.833 0.89985,-3.0995 -10e-6,-1.3331 -0.29163,-2.3913 -0.87486,-3.1745 -0.56658,-0.7998 -1.33312,-1.1998 -2.29962,-1.1998"
           style="font-size:24.99588585px;font-weight:bold;line-height:100%;letter-spacing:1.5348599px;fill:#4d4d4d;font-family:FreeSans;-inkscape-font-specification:FreeSans Bold"
           id="path4117"
           inkscape:connector-curvature="0" />
        <path
           d="m 950.12626,1294.6489 -3.67439,0 -4.72423,-13.4978 3.69939,0 2.92452,9.8734 2.72455,-9.8734 3.6994,0 -4.64924,13.4978"
           style="font-size:24.99588585px;font-weight:bold;line-height:100%;letter-spacing:1.5348599px;fill:#4d4d4d;font-family:FreeSans;-inkscape-font-specification:FreeSans Bold"
           id="path4119"
           inkscape:connector-curvature="0" />
        <path
           d="m 963.2346,1280.9262 c 0.58323,0 1.14981,0.067 1.69972,0.2 0.5499,0.1333 1.10814,0.3749 1.67473,0.7248 0.58322,0.35 1.08314,0.7999 1.49975,1.3498 0.43325,0.5333 0.78319,1.2498 1.04983,2.1497 0.26661,0.8832 0.39992,1.8997 0.39993,3.0495 -1e-5,0.1999 -0.008,0.3999 -0.025,0.5999 l -9.04851,0 c 0.0167,0.5165 0.0583,0.9665 0.12498,1.3497 0.0833,0.3666 0.21662,0.7332 0.39993,1.0999 0.19996,0.3499 0.48325,0.6249 0.84986,0.8248 0.38326,0.1833 0.85819,0.275 1.42477,0.275 1.3331,0 2.22462,-0.5666 2.67455,-1.6997 l 3.44944,0 c -0.38329,1.3331 -1.14149,2.3996 -2.27463,3.1994 -1.13315,0.7832 -2.45794,1.1748 -3.97434,1.1748 -1.91636,0 -3.42444,-0.6165 -4.52426,-1.8497 -1.09982,-1.2498 -1.64973,-2.9578 -1.64973,-5.1241 0,-2.2663 0.55824,-4.0493 1.67473,-5.3491 1.11648,-1.3165 2.64122,-1.9747 4.57424,-1.9747 m 2.67456,5.749 c -0.0833,-0.9831 -0.35828,-1.7413 -0.82486,-2.2746 -0.44994,-0.5332 -1.08316,-0.7998 -1.89969,-0.7999 -1.53308,10e-5 -2.41627,1.0249 -2.64956,3.0745 l 5.37411,0"
           style="font-size:24.99588585px;font-weight:bold;line-height:100%;letter-spacing:1.5348599px;fill:#4d4d4d;font-family:FreeSans;-inkscape-font-specification:FreeSans Bold"
           id="path4121"
           inkscape:connector-curvature="0" />
        <text
           xml:space="preserve"
           style="font-size:25px;font-style:normal;font-variant:normal;font-weight:bold;font-stretch:normal;line-height:125%;letter-spacing:0px;word-spacing:0px;fill:#4d4d4d;fill-opacity:1;stroke:none;font-family:FreeSans;-inkscape-font-specification:Sans Bold"
           x="871.68134"
           y="1294.7246"
           id="text3083"
           sodipodi:linespacing="125%"><tspan
             sodipodi:role="line"
             id="tspan3085"
             x="871.68134"
             y="1294.7246">W</tspan></text>
      </g>
      <g
         style="font-size:30.18416405px;font-style:normal;font-variant:normal;font-weight:normal;font-stretch:normal;line-height:100%;letter-spacing:0.53464288px;word-spacing:0px;fill:#4d4d4d;fill-opacity:1;stroke:none;font-family:Cousine;-inkscape-font-specification:Cousine"
         id="text4582"
         inkscape:export-filename="/Users/raphael/Documents/WORK/EUX/Ecogex/Bitcoin Logo/weLoveBitcoin.png"
         inkscape:export-xdpi="113"
         inkscape:export-ydpi="113"
         transform="translate(-2.8363377,0)">
        <path
           d="m 1100.2265,1281.1511 0,13.4978 -3.4995,0 0,-13.4978 3.4995,0 m 0,-4.7242 0,3.1245 -3.4995,0 0,-3.1245 3.4995,0"
           style="font-size:24.99588585px;font-weight:bold;line-height:100%;letter-spacing:1.5348599px;fill:#4d4d4d;font-family:FreeSans;-inkscape-font-specification:FreeSans Bold"
           id="path4126"
           inkscape:connector-curvature="0" />
        <path
           d="m 1110.3352,1281.4261 0,2.3246 -1.9497,0 0,7.3488 c 0,0.5999 0.075,0.9998 0.225,1.1998 0.15,0.1833 0.4583,0.275 0.9249,0.275 0.1832,0 0.4499,-0.025 0.7998,-0.075 l 0,2.4496 c -0.5666,0.1833 -1.2414,0.2749 -2.0246,0.2749 -2.283,0 -3.4245,-1.0581 -3.4245,-3.1744 l 0,-8.2987 -1.7247,0 0,-2.3246 1.7247,0 0,-3.6244 3.4994,0 0,3.6244 1.9497,0"
           style="font-size:24.99588585px;font-weight:bold;line-height:100%;letter-spacing:1.5348599px;fill:#4d4d4d;font-family:FreeSans;-inkscape-font-specification:FreeSans Bold"
           id="path4128"
           inkscape:connector-curvature="0" />
        <path
           d="m 1119.1894,1283.7507 c -1.8997,0 -2.8495,1.4748 -2.8495,4.4243 0,1.3164 0.2499,2.3496 0.7499,3.0995 0.5165,0.7499 1.2164,1.1248 2.0996,1.1248 0.6832,0 1.2165,-0.1833 1.5997,-0.5499 0.3833,-0.3833 0.6833,-1.0082 0.8999,-1.8747 l 3.3494,0 c -0.1666,1.6164 -0.7832,2.8995 -1.8497,3.8494 -1.0498,0.9331 -2.3912,1.3997 -4.0243,1.3997 -1.9997,0 -3.5577,-0.6165 -4.6742,-1.8497 -1.0998,-1.2331 -1.6497,-2.9661 -1.6497,-5.1991 0,-2.2996 0.5582,-4.0827 1.6747,-5.3491 1.1165,-1.2665 2.6829,-1.8997 4.6992,-1.8997 1.6831,0 3.0412,0.4666 4.0743,1.3998 1.0498,0.9331 1.6331,2.2246 1.7497,3.8743 l -3.3494,0 c -0.2,-0.8832 -0.4916,-1.5081 -0.8749,-1.8747 -0.3666,-0.3832 -0.9082,-0.5749 -1.6247,-0.5749"
           style="font-size:24.99588585px;font-weight:bold;line-height:100%;letter-spacing:1.5348599px;fill:#4d4d4d;font-family:FreeSans;-inkscape-font-specification:FreeSans Bold"
           id="path4131"
           inkscape:connector-curvature="0" />
        <path
           d="m 1134.1272,1280.9262 c 2.1163,0 3.7577,0.6416 4.9242,1.9247 1.1831,1.2664 1.7747,3.0411 1.7747,5.3241 0,2.1663 -0.5999,3.8827 -1.7997,5.1491 -1.1998,1.2665 -2.8246,1.8997 -4.8742,1.8997 -2.083,0 -3.7161,-0.6332 -4.8992,-1.8997 -1.1832,-1.2831 -1.7747,-3.0328 -1.7747,-5.2491 0,-2.2163 0.5915,-3.9577 1.7747,-5.2241 1.1831,-1.2831 2.8078,-1.9247 4.8742,-1.9247 m 0.025,2.8245 c -0.9499,0 -1.7164,0.4 -2.2996,1.1998 -0.5833,0.7999 -0.8749,1.8414 -0.8749,3.1245 0,1.2831 0.2916,2.3246 0.8749,3.1245 0.5832,0.7999 1.3497,1.1998 2.2996,1.1998 0.9331,0 1.6914,-0.3916 2.2746,-1.1748 0.5999,-0.7999 0.8998,-1.833 0.8999,-3.0995 -10e-5,-1.3331 -0.2917,-2.3913 -0.8749,-3.1745 -0.5666,-0.7998 -1.3331,-1.1998 -2.2996,-1.1998"
           style="font-size:24.99588585px;font-weight:bold;line-height:100%;letter-spacing:1.5348599px;fill:#4d4d4d;font-family:FreeSans;-inkscape-font-specification:FreeSans Bold"
           id="path4133"
           inkscape:connector-curvature="0" />
        <path
           d="m 1147.3938,1281.1511 0,13.4978 -3.4994,0 0,-13.4978 3.4994,0 m 0,-4.7242 0,3.1245 -3.4994,0 0,-3.1245 3.4994,0"
           style="font-size:24.99588585px;font-weight:bold;line-height:100%;letter-spacing:1.5348599px;fill:#4d4d4d;font-family:FreeSans;-inkscape-font-specification:FreeSans Bold"
           id="path4135"
           inkscape:connector-curvature="0" />
        <path
           d="m 1151.8201,1281.1511 3.4994,0 0,1.9497 c 0.9665,-1.4497 2.3163,-2.1746 4.0494,-2.1746 1.4331,0 2.5412,0.4083 3.3244,1.2248 0.7999,0.8165 1.1998,1.9663 1.1998,3.4494 l 0,9.0485 -3.4994,0 0,-8.3236 c 0,-1.6164 -0.7499,-2.4246 -2.2496,-2.4246 -0.8499,0 -1.5331,0.2416 -2.0497,0.7249 -0.5166,0.4832 -0.7749,1.1248 -0.7749,1.9247 l 0,8.0986 -3.4994,0 0,-13.4978"
           style="font-size:24.99588585px;font-weight:bold;line-height:100%;letter-spacing:1.5348599px;fill:#4d4d4d;font-family:FreeSans;-inkscape-font-specification:FreeSans Bold"
           id="path4137"
           inkscape:connector-curvature="0" />
        <text
           xml:space="preserve"
           style="font-size:24px;font-style:normal;font-variant:normal;font-weight:bold;font-stretch:normal;line-height:125%;letter-spacing:0px;word-spacing:0px;fill:#000000;fill-opacity:1;stroke:none;font-family:FreeSans;-inkscape-font-specification:Sans Bold"
           x="213.55882"
           y="45.557964"
           id="text3055"
           sodipodi:linespacing="125%"
           transform="translate(864.16939,1249.7939)"><tspan
             sodipodi:role="line"
             id="tspan3057"
             x="213.55882"
             y="45.557964" /></text>
        <text
           xml:space="preserve"
           style="font-size:28px;font-style:normal;font-variant:normal;font-weight:bold;font-stretch:normal;line-height:125%;letter-spacing:0px;word-spacing:0px;fill:#000000;fill-opacity:1;stroke:none;font-family:FreeSans;-inkscape-font-specification:Sans Bold"
           x="-48.005783"
           y="54.632229"
           id="text3067"
           sodipodi:linespacing="125%"
           transform="translate(864.16939,1249.7939)"><tspan
             sodipodi:role="line"
             id="tspan3069"
             x="-48.005783"
             y="54.632229" /></text>
        <text
           xml:space="preserve"
           style="font-size:25px;font-style:normal;font-variant:normal;font-weight:bold;font-stretch:normal;line-height:125%;letter-spacing:0px;word-spacing:0px;fill:#4d4d4d;fill-opacity:1;stroke:none;font-family:FreeSans;-inkscape-font-specification:Sans Bold"
           x="1076.6194"
           y="1294.6478"
           id="text3103"
           sodipodi:linespacing="125%"><tspan
             sodipodi:role="line"
             id="tspan3105"
             x="1076.6194"
             y="1294.6478">B</tspan></text>
      </g>
    </g>
  </g>
</svg>
